<?xml version="1.0" standalone="no"?><!DOCTYPE svg PUBLIC "-//W3C//DTD SVG 1.1//EN" "http://www.w3.org/Graphics/SVG/1.1/DTD/svg11.dtd"><svg t="1583732247835" class="icon" viewBox="0 0 1163 1024" version="1.1" xmlns="http://www.w3.org/2000/svg" p-id="764" xmlns:xlink="http://www.w3.org/1999/xlink" width="227.1484375" height="200"><defs><style type="text/css"></style></defs><path d="M318.738931 1023.827522a17.247768 17.247768 0 0 1-17.247768-17.247768l5.691764-172.477682H123.83915a124.011454 124.011454 0 0 1-123.838976-123.838976v-586.42412A124.011454 124.011454 0 0 1 123.83915 0h915.856493a124.011454 124.011454 0 0 1 123.838976 123.838976v586.42412a124.011454 124.011454 0 0 1-123.838976 123.838976H587.631638l-258.716523 186.448374a17.247768 17.247768 0 0 1-10.176184 3.277076zM123.83915 34.840492a89.343439 89.343439 0 0 0-89.343439 89.343439v586.42412a89.343439 89.343439 0 0 0 89.343439 89.34344h200.591545a17.247768 17.247768 0 0 1 17.247768 17.247768l-5.17433 155.229914 235.776991-169.545562a17.247768 17.247768 0 0 1 10.003706-3.277076h457.410813a89.343439 89.343439 0 0 0 89.34344-89.343439v-586.42412a89.343439 89.343439 0 0 0-89.34344-89.34344H123.83915z" p-id="765"></path><path d="M972.25687 257.336702H191.795357a17.247768 17.247768 0 0 1 0-34.495536h780.461513a17.247768 17.247768 0 0 1 0 34.495536zM972.25687 433.953849H191.795357a17.247768 17.247768 0 0 1 0-34.495537h780.461513a17.247768 17.247768 0 0 1 0 34.495537zM972.25687 610.570995H191.795357a17.247768 17.247768 0 0 1 0-34.495536h780.461513a17.247768 17.247768 0 0 1 0 34.495536z" p-id="766"></path></svg>